<?xml version="1.0" encoding="utf-8"?>
<!-- Generator: Adobe Illustrator 22.0.1, SVG Export Plug-In . SVG Version: 6.00 Build 0)  -->
<svg version="1.1" id="Calque_1" xmlns="http://www.w3.org/2000/svg" xmlns:xlink="http://www.w3.org/1999/xlink" x="0px" y="0px"
	 viewBox="0 0 500 500" style="enable-background:new 0 0 500 500;" xml:space="preserve">
<style type="text/css">
	.st0{fill:#DF2B27;}
	.st1{fill:#FEF7B5;}
</style>
<g>
	<path class="st0" d="M250,0C111.9,0,0,111.9,0,250c0,138.1,111.9,250,250,250c138.1,0,250-111.9,250-250C500,111.9,388.1,0,250,0z
		 M366,387.4c-15.8,0-31.6,0-47.4,0c-0.5,0-0.9,0-1.4,0c-1.5,0.2-2-0.5-1.8-1.9c0.1-0.4,0-0.9,0-1.4c0-47.8,0-95.6,0-143.4
		c0-8.9,0-17.8-0.7-26.7c-0.7-8.3-1.9-16.6-4.6-24.5c-5.3-15.3-16-24.5-31.5-28.4c-10.8-2.8-21.9-3.3-33-2.4
		c-7.6,0.5-14.9,1.9-22,4.6c-13.2,5.1-22.7,14.1-28.8,26.8c-4.6,9.5-6.9,19.7-8.2,30.1c-1.5,11.4-1.7,22.8-1.8,34.2
		c-0.5,43.4-0.1,86.9-0.2,130.3c0,0.5,0,1.1,0,1.6c0,0.8-0.4,1.1-1.2,1.1c-0.3,0-0.5,0-0.8,0c-17.4,0-34.7,0-52.1,0
		c0-88.9,0-177.8,0-266.7c3.5,0,6.9-0.1,10.4-0.1c13.5,0,26.9,0,40.3,0c0.5,0,1.1,0.1,1.6,0c1.5-0.2,1.9,0.6,1.8,1.9
		c0,0.4,0,0.9,0,1.4c0,9.8,0,19.6,0,29.4c0,0.5,0,1.1,0,1.6c0.1,0.6-0.3,1.4,0.6,1.6c0.6,0.1,0.9-0.5,1.2-1c2-3.3,4.2-6.4,6.6-9.3
		c11.8-14.1,26.8-23.2,44.1-28.7c14-4.4,28.4-5.6,43-4.6c7.9,0.6,15.7,1.5,23.4,3.4c11,2.8,21.3,7.2,30.4,14.1
		c10.2,7.7,17.8,17.6,23.1,29.1c5.3,11.4,8.3,23.6,10.1,36c1.7,11.8,2.1,23.7,2.1,35.6c0,51,0,102,0,152.9
		C369.3,387.9,369.8,387.4,366,387.4z"/>
	<path class="st1" d="M367.2,195.6c-1.8-12.5-4.8-24.6-10.1-36c-5.4-11.5-12.9-21.4-23.1-29.1c-9.1-6.9-19.4-11.3-30.4-14.1
		c-7.7-1.9-15.5-2.9-23.4-3.4c-14.6-1-29,0.2-43,4.6c-17.4,5.4-32.4,14.6-44.1,28.7c-2.5,2.9-4.6,6.1-6.6,9.3
		c-0.3,0.5-0.6,1.1-1.2,1c-0.9-0.2-0.5-1-0.6-1.6c-0.1-0.5,0-1.1,0-1.6c0-9.8,0-19.6,0-29.4c0-0.5,0-0.9,0-1.4
		c0.1-1.3-0.2-2.1-1.8-1.9c-0.5,0.1-1.1,0-1.6,0c-13.4,0-26.9,0-40.3,0c-3.5,0-6.9,0.1-10.4,0.1c0,88.9,0,177.8,0,266.7
		c17.4,0,34.7,0,52.1,0c0.3,0,0.5,0,0.8,0c0.8,0,1.2-0.2,1.2-1.1c0-0.5,0-1.1,0-1.6c0.2-43.4-0.3-86.9,0.2-130.3
		c0.1-11.4,0.3-22.9,1.8-34.2c1.4-10.4,3.6-20.6,8.2-30.1c6.1-12.7,15.6-21.7,28.8-26.8c7.1-2.7,14.5-4.1,22-4.6
		c11.1-0.8,22.1-0.3,33,2.4c15.5,4,26.2,13.1,31.5,28.4c2.7,8,4,16.2,4.6,24.5c0.7,8.9,0.7,17.8,0.7,26.7c0,47.8,0,95.6,0,143.4
		c0,0.5,0,0.9,0,1.4c-0.2,1.4,0.3,2.1,1.8,1.9c0.4-0.1,0.9,0,1.4,0c15.8,0,31.6,0,47.4,0c3.8,0,3.3,0.5,3.3-3.3c0-51,0-102,0-152.9
		C369.3,219.2,368.9,207.4,367.2,195.6z"/>
</g>
</svg>
